<svg id="eVGsANp4dg11" xmlns="http://www.w3.org/2000/svg" xmlns:xlink="http://www.w3.org/1999/xlink" viewBox="0 0 500 150" shape-rendering="geometricPrecision" text-rendering="geometricPrecision" project-id="58b02211748c4fd38fb894fe48b7f5c9" export-id="1a79c686c69240ee9e12e663e3d7172c" cached="false"><g transform="matrix(-5 0 0 5 500.045933-174.98207)"><path d="M98.266,35.953c-.80078-.24219-.98438,1.6094-2.207,2.707s-2.3281,1.8008-2.9414,2.6289c-2.7617,3.707-2.3164,6.332-5.2031,8.4453-2.0312,1.4844-5.6484,2.7617-13.434,3.7773c5.6641-2.6055,9.5234-10.316,8.5156-10.777s-1.4648,2.1445-5.2695,3.7734-2.4922,3.8242-6.6484,7.1797c-5.3242.26562-8.5781-.30859-13.312-1.1445c4.7383-1.1094,6.2539-2.6914,7.4492-4.7969s4.3125-4.4375,3.6758-4.9453-2.3398,1.043-5.2891,2.1289c-2.9492,1.0859-4.2266,2.8789-6.1992,5.3633c1.4648-2.2578,2.1484-3.9961,2.207-6.2969s1.0312-4.4883.23438-4.5391-1.0352,2.3867-3.7148,5.0156c-2.6797,2.6328-1.7852,3.9531-2.5586,7.2656-5.9844-1.4844-11.793-3.3945-17.906-4.3594c3.2656-.33594,6.043-2.5039,7.7422-4.0469s3.5234-1.6719,2.9688-2.3477-9.9805.57812-12.156,2.7266c-2.1758,2.1445-3.1055,2.6172-5.1953,2.9883-3.6211-.15625-11.406-.49609-17.324,2.7148c2.0508-2.5469,2.4062-3.1602,2.9062-5.7109s2.2344-4.2344,1.3945-4.3906-2.3242,1.7383-4.3828,3.7031c-2.0547,1.9609-1.6289,3.1172-3.1211,7.7891.24219-1.3164-.0625-10.715-1.0781-10.711s-.57031,2.2773-.84766,3.3008-.60156,1.6289-1.2422,3.9727s1.1602,2.9492.050781,6.1406c-.80469.71875-4.332,3.9219-3.7734,4.3281.55859.41016,1.6523-1.2539,3.668-3.0156c2.0156-1.7578,5.9219-4.9727,13.184-6.5781.53516.37891-.56641,3.7891,2.3477,5.6719s3.8047,4.168,4.5781,3.4844c.77734-.68359-2.1523-3.5469-3.2734-8.0742c1.582,2.2734,1.9336,4.1797,5,4.8867c3.0703.70703,4.5898,2.0078,4.9102,1.3984.32031-.60547-.066406-.66406-1.7891-2.4766s-3.4727-5.1289-7.1758-5.5625c7.6836-.40234,12.605.50391,18.938,2.0469c1.7578,1.8008,1.2852,2.9609,3.5586,4.9922c2.2734,2.0352,3.3516,1.3164,6.1016,2.2734c2.7539.95703,3.1562,1.0547,3.2305.38281.070313-.67188-5.8633-2.6797-8.1484-6.4375c9.2461,2.7773,12.625,2.8945,15.504,3.4062.58594.78125,2.1172,3.9414,6.0156,5.0156s4.8086,2.9492,6.2695,3.5938s2.7773.93359,2.9414.26172c.16797-.67188-1.2109-.74609-3.2617-2.6953s-3.8242-4.5391-6.4492-5.7695c4.2578.082031,8.3086-.26562,12.387-1.0586.48047,3.7734,2.418,7.7227,5.0508,8.5859c2.6328.85938,3.0664,2.3711,3.6641,1.7461.59766-.62109-4.5977-6.8906-5.3633-9.1875c1.4609,1.9414,2.7891,3.5625,6.4922,3.6719c3.7031.10547,4.875,1.0664,5.0195.37109s-1.5312-.74219-3.875-2.4414-4.0781-3.0508-7.4492-3.5859c2.0312-.68359,4.3984-1.6406,6.4961-3.1055c2.0977-1.4648,3.2695-1.5391,5.2305-3.7148s3.6602-9.7344,2.8594-9.9766L98.266,35.953Z"/></g></svg>
