<?xml version="1.0" encoding="iso-8859-1"?>
<!-- Uploaded to: SVG Repo, www.svgrepo.com, Generator: SVG Repo Mixer Tools -->
<svg height="800px" width="800px" version="1.1" id="Layer_1" xmlns="http://www.w3.org/2000/svg" xmlns:xlink="http://www.w3.org/1999/xlink" 
	 viewBox="0 0 511.989 511.989" xml:space="preserve">
<g>
	<path style="fill:#E6E9ED;" d="M349.633,142.638c-0.031-0.016-2.328-3.078-3.438-6.953c-1.312-4.547-0.5-7.859,2.688-11.062
		c8.656-8.688,11.531-19.983,8.062-31.812c-2.328-7.938-6.797-13.547-7.391-14.25c0,0,0,0,0-0.016l-0.016-0.016l0,0
		c-1.953-2.359-4.906-3.859-8.219-3.859c-5.891,0-10.656,4.781-10.656,10.672c0,2.578,0.922,4.953,2.453,6.797l0,0
		c0.016,0.031,2.266,2.938,3.359,6.672c1.281,4.359,0.469,7.578-2.703,10.75c-8.656,8.687-11.516,20.046-8.094,32
		c2.328,8.109,6.828,13.843,7.344,14.468l0,0c1.953,2.422,4.953,3.969,8.297,3.969c5.891,0,10.672-4.765,10.672-10.656
		c0-2.531-0.891-4.859-2.359-6.687L349.633,142.638L349.633,142.638z"/>
	<path style="fill:#E6E9ED;" d="M274.478,57.342c-3.172-11.938-9.312-20.219-10-21.125l0,0c-1.953-2.562-5.016-4.218-8.484-4.218
		c-5.891,0-10.672,4.781-10.672,10.671c0,2.406,0.812,4.625,2.156,6.406l-0.016,0.016c0.047,0.062,4.5,6.094,6.547,14.312
		c2.453,9.828,0.484,18.187-6,25.53c-11.406,12.891-15.031,28.702-10.5,45.733c3.172,11.937,9.312,20.218,10,21.124l0,0
		c1.953,2.547,5.016,4.203,8.484,4.203c5.891,0,10.672-4.765,10.672-10.656c0-2.406-0.812-4.625-2.156-6.406v-0.016
		c-0.031-0.047-4.484-6.094-6.531-14.312c-2.453-9.828-0.484-18.187,6-25.53C275.385,90.186,279.01,74.373,274.478,57.342z"/>
	<path style="fill:#E6E9ED;" d="M186.292,92.811c-2.328-7.938-6.812-13.547-7.39-14.25c0,0-0.016,0-0.016-0.016l-0.016-0.016l0,0
		c-1.953-2.359-4.906-3.859-8.203-3.859c-5.891,0-10.672,4.781-10.672,10.672c0,2.578,0.922,4.953,2.453,6.797l0,0
		c0.016,0.031,2.266,2.938,3.359,6.672c1.281,4.359,0.469,7.578-2.703,10.75c-8.641,8.687-11.516,20.046-8.078,32
		c2.312,8.109,6.828,13.843,7.328,14.468l0,0c1.969,2.422,4.953,3.969,8.312,3.969c5.891,0,10.656-4.765,10.656-10.656
		c0-2.531-0.891-4.859-2.359-6.687v-0.016c-0.016-0.016-2.328-3.078-3.438-6.953c-1.312-4.547-0.5-7.859,2.688-11.062
		C186.886,115.935,189.745,104.638,186.292,92.811z"/>
</g>
<path style="fill:#FFCE54;" d="M501.316,458.661H10.672C4.781,458.661,0,463.443,0,469.333s4.781,10.656,10.672,10.656h490.645
	c5.891,0,10.672-4.766,10.672-10.656S507.207,458.661,501.316,458.661z"/>
<path style="fill:#965353;" d="M255.994,223.995C65.217,224.792,29.249,386.383,43.358,445.053c1.188,4.906,2.922,9.438,5.25,13.609
	h414.771c2.327-4.172,4.062-8.703,5.249-13.609C482.738,386.383,446.77,224.792,255.994,223.995z"/>
<g style="opacity:0.1;">
	<path style="fill:#FFFFFF;" d="M266.666,224.229c-3.516-0.125-7.062-0.219-10.672-0.234
		C65.217,224.792,29.249,386.383,43.358,445.053c1.188,4.906,2.922,9.438,5.25,13.609h21.343c-2.344-4.172-4.078-8.703-5.266-13.609
		C50.843,387.492,85.217,230.885,266.666,224.229z"/>
</g>
<g style="opacity:0.1;">
	<path d="M333.851,234.948c-5.391,3.812-47.827,45.389-52.092,49.67c-32.141,32.124,2.952,44.327,32.123,73.499
		c29.172,29.156,40.25,65.357,72.373,33.234c7.797-7.797,53.594-56.375,59.593-67.422
		C424.959,286.54,389.599,251.931,333.851,234.948z"/>
</g>
<path style="fill:#E6E9ED;" d="M374.429,267.384l62.374-62.357c-1.891-7.125-0.062-15.031,5.516-20.608
	c4.03-4.031,9.39-6.25,15.077-6.25c5.703,0,11.062,2.219,15.093,6.25c2.688,2.687,4.578,5.984,5.531,9.562
	c3.578,0.953,6.859,2.828,9.547,5.531c4.031,4.016,6.25,9.375,6.25,15.078s-2.219,11.062-6.25,15.093
	c-4.031,4.016-9.391,6.234-15.078,6.234l0,0c-1.891,0-3.75-0.234-5.531-0.719l-62.357,62.358L374.429,267.384z"/>
<path style="fill:#A85D5D;" d="M387.381,390.225c32.125-32.125,53.938-101.217,24.766-130.388
	c-29.171-29.156-98.248-7.36-130.387,24.779c-32.141,32.124-34.547,81.827-5.375,110.983
	C305.555,424.771,355.242,422.365,387.381,390.225z"/>
</svg>